<svg width="48" height="48" viewBox="0 0 48 48" fill="none" xmlns="http://www.w3.org/2000/svg">
<circle cx="24" cy="24" r="24" fill="black"/>
<circle cx="24" cy="24" r="21" fill="white"/>
<g clip-path="url(#clip0_0_1)">
<path fill-rule="evenodd" clip-rule="evenodd" d="M31.8023 13.1625C28.6605 10.9037 24.5695 10.0234 20.544 11.1021C13.7551 12.9211 9.59551 19.6585 10.8731 26.4524C11.059 27.441 10.4083 28.3931 9.41963 28.579C8.43101 28.7649 7.47887 28.1142 7.29297 27.1256C5.6661 18.4742 10.9584 9.89916 19.6012 7.58332C24.9342 6.15433 30.3524 7.428 34.4045 10.5602L35.8915 9.07336C36.6563 8.3084 37.9643 8.85018 37.9643 9.93199V15.5004C37.9643 16.1711 37.4208 16.7147 36.75 16.7147H31.1816C30.0998 16.7147 29.558 15.4068 30.323 14.6418L31.8023 13.1625ZM38.5814 19.4218C39.5698 19.2359 40.5221 19.8866 40.7078 20.8753C42.3347 29.5267 37.0426 38.1017 28.3997 40.4176C23.0665 41.8466 17.6482 40.5728 13.596 37.4404L12.1088 38.9275C11.3438 39.6925 10.0359 39.1506 10.0359 38.069V32.5005C10.0359 31.8297 10.5795 31.2862 11.2501 31.2862H16.8186C17.9004 31.2862 18.4422 32.594 17.6772 33.359L16.1983 34.838C19.34 37.097 23.4313 37.9774 27.4569 36.8989C34.2459 35.0796 38.4053 28.3424 37.1279 21.5485C36.9419 20.5599 37.5927 19.6077 38.5814 19.4218ZM25.5235 15.8815C25.5235 14.8756 24.708 14.0601 23.702 14.0601C22.6961 14.0601 21.8806 14.8756 21.8806 15.8815V16.7109C19.9174 17.0343 18.4199 18.7392 18.4199 20.794C18.4199 22.7387 19.7741 24.4211 21.6739 24.8367L24.7327 25.5058C25.0874 25.5834 25.3414 25.8983 25.3414 26.2628C25.3414 26.6912 24.9939 27.0378 24.5673 27.0378H22.8369C22.5027 27.0378 22.2135 26.825 22.1064 26.5219C21.7712 25.5735 20.7305 25.0764 19.7821 25.4116C18.8336 25.7468 18.3365 26.7874 18.6718 27.7359C19.174 29.1568 20.3835 30.2466 21.8806 30.5769V31.455C21.8806 32.4609 22.6961 33.2764 23.702 33.2764C24.708 33.2764 25.5235 32.4609 25.5235 31.455V30.5769C27.5037 30.1397 28.9843 28.3732 28.9843 26.2628C28.9843 24.1877 27.5396 22.3908 25.5112 21.9471L22.4524 21.278C22.2249 21.2282 22.0628 21.0268 22.0628 20.794C22.0628 20.5203 22.2846 20.2985 22.5582 20.2985H24.5673C24.7964 20.2985 25.0004 20.3957 25.1447 20.557C25.2125 20.6327 25.2645 20.7202 25.2978 20.8144C25.633 21.7629 26.6737 22.26 27.6221 21.9248C28.5706 21.5895 29.0677 20.5489 28.7324 19.6005C28.5379 19.0499 28.2382 18.5511 27.8591 18.1275C27.2552 17.4528 26.443 16.963 25.5235 16.7597V15.8815Z" fill="black"/>
</g>
<defs>
<clipPath id="clip0_0_1">
<rect width="34" height="34" fill="white" transform="translate(7 7)"/>
</clipPath>
</defs>
</svg>
