<?xml version="1.0" standalone="no"?>
<!DOCTYPE svg PUBLIC "-//W3C//DTD SVG 20010904//EN"
 "http://www.w3.org/TR/2001/REC-SVG-20010904/DTD/svg10.dtd">
<svg version="1.0" xmlns="http://www.w3.org/2000/svg"
 width="239.000000pt" height="232.000000pt" viewBox="0 0 239.000000 232.000000"
 preserveAspectRatio="xMidYMid meet">

<g transform="translate(0.000000,232.000000) scale(0.100000,-0.100000)"
fill="#000000" stroke="none">
<path d="M1077 1820 c-183 -31 -346 -226 -308 -367 6 -22 21 -53 32 -68 12
-14 110 -101 218 -192 413 -347 410 -344 429 -453 19 -105 -12 -205 -85 -276
-199 -195 -544 -55 -588 239 -15 100 -25 39 -24 -150 0 -158 3 -194 12 -178
46 76 96 92 157 52 45 -30 133 -64 186 -72 96 -15 231 33 314 111 125 116 157
298 82 457 -31 67 -57 97 -142 167 -29 25 -77 64 -105 88 -27 24 -60 51 -72
61 -321 266 -333 279 -333 358 0 50 26 99 71 135 48 38 162 78 226 78 60 0
165 -35 222 -74 77 -54 137 -152 149 -243 4 -31 13 -58 20 -61 15 -5 18 373 2
383 -5 3 -16 -10 -24 -29 -27 -66 -74 -72 -158 -21 -85 51 -186 71 -281 55z"/>
</g>
</svg>
